# Blender v2.91.0 OBJ File: 'map.blend'
# www.blender.org
mtllib map.mtl
o Plane
v 5.822354 7.754006 0.000000
v 5.822354 17.754005 0.000000
v -4.177646 7.754006 0.000000
v -4.177646 17.754005 0.000000
v 5.822354 7.754006 2.000000
v -4.177646 7.754006 2.000000
v 0.397801 11.537419 0.000000
v -0.191165 13.570495 0.000000
v 1.689871 14.134070 0.000000
v 2.239219 11.520483 0.000000
v 0.631700 11.845732 3.317379
v 0.192623 13.361397 3.317379
v 1.455515 13.739770 3.317379
v 1.855988 11.834471 3.317379
v 0.397801 11.537419 3.000000
v -0.191165 13.570495 3.000000
v 1.689871 14.134070 3.000000
v 2.239219 11.520483 3.000000
v -1.846033 15.222803 0.500000
v -1.846033 15.222803 1.500000
v -2.846033 15.222803 0.500000
v -2.846033 15.222803 1.500000
v -1.846033 16.222803 0.500000
v -1.846033 16.222803 1.500000
v -2.846033 16.222803 0.500000
v -2.846033 16.222803 1.500000
v 1.159757 15.965236 0.057530
v 1.159757 15.965236 0.732337
v 0.484950 15.965236 0.057530
v 0.484950 15.965236 0.732337
v 1.159757 16.640041 0.057530
v 1.159757 16.640041 0.732337
v 0.484950 16.640041 0.057530
v 0.484950 16.640041 0.732337
v -4.177646 17.754005 2.000000
v -0.156321 17.754005 0.000000
v 1.453613 11.024672 0.394333
v 1.616467 11.248824 0.565568
v 1.717119 10.939054 0.565568
v 1.453613 10.747604 0.565569
v 1.190107 10.939054 0.565568
v 1.290759 11.248824 0.565568
v 1.717119 11.110289 0.842639
v 1.616467 10.800519 0.842639
v 1.290759 10.800519 0.842639
v 1.190107 11.110289 0.842639
v 1.453613 11.301739 0.842638
v 1.453613 11.024672 1.013874
v 1.608497 10.974348 0.440596
v 1.549336 11.156425 0.440596
v 1.704221 11.106101 0.541245
v 1.453613 11.288177 0.541246
v 1.357890 11.156425 0.440596
v 1.453613 10.861816 0.440596
v 1.608498 10.811491 0.541246
v 1.298729 10.974348 0.440596
v 1.298729 10.811491 0.541246
v 1.203005 11.106101 0.541245
v 1.549336 11.319282 0.704103
v 1.357890 11.319282 0.704103
v 1.763384 11.024672 0.704103
v 1.704223 11.206751 0.704103
v 1.549336 10.730062 0.704103
v 1.704223 10.842593 0.704103
v 1.203004 10.842593 0.704103
v 1.357890 10.730062 0.704103
v 1.203004 11.206751 0.704103
v 1.143842 11.024672 0.704103
v 1.608498 11.237852 0.866961
v 1.704221 10.943243 0.866962
v 1.453613 10.761166 0.866961
v 1.203005 10.943243 0.866962
v 1.298729 11.237852 0.866961
v 1.608497 11.074996 0.967611
v 1.453613 11.187528 0.967611
v 1.549336 10.892920 0.967611
v 1.357890 10.892920 0.967611
v 1.298729 11.074996 0.967611
vt 0.000000 0.713199
vt 0.713199 0.713199
vt 0.455026 0.418471
vt 0.268625 0.457650
vt 0.855839 0.000000
vt 0.855839 0.712876
vt 0.998476 0.712904
vt 0.998476 0.000028
vt 0.589810 0.713199
vt 0.579433 0.851666
vt 0.673454 0.850808
vt 0.673454 0.738267
vt 0.288918 0.713199
vt 0.142637 0.713199
vt 0.142637 0.927159
vt 0.288918 0.927159
vt 0.269833 0.326321
vt 0.414832 0.284316
vt 0.713199 0.286801
vt 0.713199 0.000000
vt 0.000000 0.000000
vt 0.288918 0.949932
vt 0.420249 0.949939
vt 0.420249 0.735984
vt 0.288918 0.735977
vt 0.555554 0.713435
vt 0.420249 0.713199
vt 0.420249 0.927155
vt 0.555554 0.927390
vt 0.900395 0.713036
vt 0.713199 0.713036
vt 0.713199 0.926996
vt 0.900395 0.926996
vt 0.695596 0.872748
vt 0.695596 0.721788
vt 0.555554 0.874026
vt 0.740957 0.949632
vt 0.877422 0.949632
vt 0.392895 0.713204
vt 0.305578 0.713199
vt 0.900396 0.784356
vt 0.971714 0.784356
vt 0.971714 0.713036
vt 0.900395 0.713036
vt 0.900395 0.927009
vt 0.900395 0.998329
vt 0.971678 0.998329
vt 0.971678 0.927009
vt 0.971683 0.855676
vt 0.900395 0.855690
vt 0.900395 0.927009
vt 0.900395 0.784356
vt 0.971699 0.855676
vt 0.971699 0.784356
vt 0.626874 0.945346
vt 0.626874 0.874026
vt 0.555554 0.874026
vt 0.555554 0.945346
vt 0.698194 0.945346
vt 0.698194 0.874026
vt 0.626874 0.874026
vt 0.626874 0.945346
vt 0.238891 0.975286
vt 0.287018 0.975286
vt 0.287017 0.927159
vt 0.238891 0.927159
vt 0.555554 0.945346
vt 0.555554 0.993474
vt 0.603656 0.993474
vt 0.603656 0.945346
vt 0.516470 0.975516
vt 0.516470 0.927390
vt 0.468365 0.927399
vt 0.468365 0.975525
vt 0.420249 0.927390
vt 0.420249 0.975517
vt 0.468365 0.975517
vt 0.468365 0.927390
vt 0.190764 0.927159
vt 0.142637 0.927159
vt 0.142637 0.975286
vt 0.190764 0.975286
vt 0.238891 0.927159
vt 0.190764 0.927159
vt 0.190764 0.975286
vt 0.238891 0.975286
vt 0.855839 0.713036
vt 0.855839 0.000000
vt 0.713199 0.000000
vt 0.713199 0.713036
vt 0.142637 1.000000
vt 0.142637 0.713199
vt 0.000000 0.999999
vt 0.535263 0.946183
vt 0.525867 0.953010
vt 0.538853 0.957229
vt 0.774489 0.966832
vt 0.774766 0.956587
vt 0.765448 0.959482
vt 0.546878 0.946183
vt 0.538853 0.935137
vt 0.525867 0.939356
vt 0.765448 0.972998
vt 0.646877 0.954193
vt 0.640356 0.964333
vt 0.653370 0.963778
vt 0.723592 0.977877
vt 0.732250 0.984939
vt 0.734479 0.972822
vt 0.691078 0.954569
vt 0.688787 0.945346
vt 0.679225 0.952376
vt 0.700129 0.974455
vt 0.697577 0.964661
vt 0.689978 0.976003
vt 0.774766 0.978457
vt 0.658711 0.952043
vt 0.722705 0.965908
vt 0.684658 0.964314
vt 0.754512 0.954998
vt 0.744024 0.960247
vt 0.753706 0.966042
vt 0.628556 0.982933
vt 0.637653 0.975186
vt 0.626039 0.975186
vt 0.606463 0.975754
vt 0.616642 0.982013
vt 0.613053 0.970967
vt 0.723592 0.954933
vt 0.734479 0.959336
vt 0.732250 0.949632
vt 0.678149 0.973864
vt 0.671625 0.963718
vt 0.668891 0.975039
vt 0.754511 0.977993
vt 0.744024 0.973763
vt 0.749783 0.985490
vt 0.634064 0.964140
vt 0.626039 0.953093
vt 0.622449 0.964140
vt 0.637653 0.953093
vt 0.628556 0.945346
vt 0.613053 0.957313
vt 0.616642 0.946266
vt 0.606463 0.952525
vt 0.603656 0.964140
vt 0.743623 0.966696
vt 0.744024 0.956546
vt 0.666309 0.963387
vt 0.659805 0.973491
vt 0.668891 0.975044
vt 0.763024 0.985018
vt 0.680233 0.982631
vt 0.668906 0.953555
vt 0.668891 0.953528
vt 0.647955 0.975677
vt 0.657547 0.982639
vt 0.713199 0.960265
vt 0.713199 0.973751
vt 0.744024 0.978367
vt 0.648997 0.945346
vt 0.637664 0.974436
vt 0.529456 0.928310
vt 0.519277 0.934568
vt 0.700129 0.952939
vt 0.550468 0.935137
vt 0.541370 0.927390
vt 0.719099 0.985513
vt 0.550468 0.957229
vt 0.541370 0.964976
vt 0.763024 0.949632
vt 0.516470 0.946183
vt 0.637654 0.952942
vt 0.529456 0.964056
vt 0.519277 0.957798
vn 0.0000 0.0000 1.0000
vn 0.0000 1.0000 0.0000
vn -0.9605 -0.2783 0.0000
vn -0.0092 -1.0000 0.0000
vn -0.2870 0.9579 0.0000
vn 0.9786 0.2057 0.0000
vn -0.6866 -0.1989 0.6993
vn -0.2052 0.6848 0.6993
vn 0.6996 0.1470 0.6993
vn -0.0066 -0.7148 0.6993
vn 0.0000 -1.0000 0.0000
vn -1.0000 0.0000 0.0000
vn 1.0000 0.0000 0.0000
vn 0.0000 0.0000 -1.0000
vn 0.3151 0.1024 -0.9435
vn 0.2680 0.7002 -0.6617
vn 0.1947 -0.2680 -0.9435
vn -0.1947 -0.2680 -0.9435
vn -0.3151 0.1024 -0.9435
vn 0.2680 0.9050 -0.3304
vn 0.9435 0.0247 -0.3304
vn 0.3151 -0.8897 -0.3304
vn -0.7488 -0.5746 -0.3304
vn -0.7779 0.5346 -0.3304
vn 0.5831 0.8026 -0.1256
vn 0.9435 -0.3066 -0.1256
vn 0.0000 -0.9921 -0.1256
vn -0.9435 -0.3066 -0.1256
vn -0.5831 0.8026 -0.1256
vn 0.6284 0.4089 0.6617
vn 0.5831 -0.4713 0.6617
vn -0.2680 -0.7002 0.6617
vn -0.7488 0.0385 0.6617
vn -0.1947 0.7240 0.6617
vn -0.1947 0.2680 0.9435
vn -0.3568 0.4911 0.7947
vn -0.6284 0.4089 0.6617
vn -0.3151 -0.1024 0.9435
vn -0.5773 -0.1876 0.7947
vn -0.5831 -0.4713 0.6617
vn 0.0000 -0.3313 0.9435
vn 0.0000 -0.6071 0.7947
vn 0.2680 -0.7002 0.6617
vn 0.3151 -0.1024 0.9435
vn 0.5773 -0.1876 0.7947
vn 0.7488 0.0385 0.6617
vn 0.1947 0.2680 0.9435
vn 0.3568 0.4911 0.7947
vn 0.1947 0.7240 0.6617
vn -0.3151 0.8897 0.3304
vn -0.5773 0.7947 0.1876
vn -0.7488 0.5746 0.3304
vn -0.9435 -0.0247 0.3304
vn -0.9342 -0.3035 0.1876
vn -0.7779 -0.5346 0.3304
vn -0.2680 -0.9050 0.3304
vn 0.0000 -0.9822 0.1876
vn 0.2680 -0.9050 0.3304
vn 0.7779 -0.5346 0.3304
vn 0.9342 -0.3035 0.1876
vn 0.9435 -0.0247 0.3304
vn 0.7488 0.5746 0.3304
vn 0.5773 0.7947 0.1876
vn 0.3151 0.8897 0.3304
vn -0.9435 0.3066 0.1256
vn -0.9342 0.3035 -0.1876
vn -0.9435 0.0247 -0.3304
vn -0.5831 -0.8026 0.1256
vn -0.5773 -0.7947 -0.1876
vn -0.3151 -0.8897 -0.3304
vn 0.5831 -0.8026 0.1256
vn 0.5774 -0.7947 -0.1876
vn 0.7488 -0.5746 -0.3304
vn 0.9435 0.3066 0.1256
vn 0.9342 0.3035 -0.1876
vn 0.7779 0.5346 -0.3304
vn 0.0000 0.9921 0.1256
vn 0.0000 0.9822 -0.1876
vn -0.2680 0.9050 -0.3304
vn -0.5831 0.4713 -0.6617
vn -0.5773 0.1876 -0.7947
vn -0.7488 -0.0385 -0.6617
vn -0.6284 -0.4089 -0.6617
vn -0.3568 -0.4911 -0.7947
vn -0.1947 -0.7240 -0.6617
vn 0.1947 -0.7240 -0.6617
vn 0.3568 -0.4911 -0.7947
vn 0.6284 -0.4089 -0.6617
vn -0.2680 0.7002 -0.6617
vn 0.0000 0.6071 -0.7947
vn 0.0000 0.3313 -0.9435
vn 0.7488 -0.0385 -0.6617
vn 0.5773 0.1876 -0.7947
vn 0.5831 0.4713 -0.6617
usemtl BakedMtl
s off
f 1/1/1 2/2/1 9/3/1 10/4/1
f 1/5/2 3/6/2 6/7/2 5/8/2
f 14/9/1 13/10/1 12/11/1 11/12/1
f 8/13/3 7/14/3 15/15/3 16/16/3
f 7/17/1 8/18/1 9/3/1 2/2/1 36/19/1 4/20/1 3/21/1 1/1/1 10/4/1
f 7/22/4 10/23/4 18/24/4 15/25/4
f 9/26/5 8/27/5 16/28/5 17/29/5
f 10/30/6 9/31/6 17/32/6 18/33/6
f 11/12/7 12/11/7 16/34/7 15/35/7
f 12/11/8 13/10/8 17/36/8 16/34/8
f 13/37/9 14/38/9 18/33/9 17/32/9
f 14/39/10 11/40/10 15/25/10 18/24/10
f 19/41/11 20/42/11 22/43/11 21/44/11
f 21/45/12 22/46/12 26/47/12 25/48/12
f 25/48/2 26/49/2 24/50/2 23/51/2
f 23/52/13 24/50/13 20/53/13 19/54/13
f 21/55/14 25/56/14 23/57/14 19/58/14
f 26/59/1 22/60/1 20/61/1 24/62/1
f 27/63/11 28/64/11 30/65/11 29/66/11
f 29/67/12 30/68/12 34/69/12 33/70/12
f 33/71/2 34/72/2 32/73/2 31/74/2
f 31/75/13 32/76/13 28/77/13 27/78/13
f 29/79/14 33/80/14 31/81/14 27/82/14
f 34/83/1 30/84/1 28/85/1 32/86/1
f 35/87/13 6/88/13 3/89/13 4/90/13
f 4/91/11 36/92/11 35/93/11
f 37/94/15 50/95/15 49/96/15
f 38/97/16 50/98/16 52/99/16
f 37/94/17 49/96/17 54/100/17
f 37/94/18 54/100/18 56/101/18
f 37/94/19 56/101/19 53/102/19
f 38/97/20 52/99/20 59/103/20
f 39/104/21 51/105/21 61/106/21
f 40/107/22 55/108/22 63/109/22
f 41/110/23 57/111/23 65/112/23
f 42/113/24 58/114/24 67/115/24
f 38/97/25 59/103/25 62/116/25
f 39/104/26 61/106/26 64/117/26
f 40/107/27 63/109/27 66/118/27
f 41/110/28 65/112/28 68/119/28
f 42/120/29 67/121/29 60/122/29
f 43/123/30 69/124/30 74/125/30
f 44/126/31 70/127/31 76/128/31
f 45/129/32 71/130/32 77/131/32
f 46/132/33 72/133/33 78/134/33
f 47/135/34 73/136/34 75/137/34
f 75/138/35 78/139/35 48/140/35
f 75/138/36 73/141/36 78/139/36
f 73/141/37 46/142/37 78/139/37
f 78/139/38 77/143/38 48/140/38
f 78/139/39 72/144/39 77/143/39
f 72/144/40 45/145/40 77/143/40
f 77/143/41 76/128/41 48/140/41
f 77/143/42 71/146/42 76/128/42
f 71/130/43 44/147/43 76/148/43
f 76/128/44 74/125/44 48/140/44
f 76/128/45 70/127/45 74/125/45
f 70/149/46 43/150/46 74/151/46
f 74/125/47 75/138/47 48/140/47
f 74/125/48 69/124/48 75/138/48
f 69/152/49 47/135/49 75/137/49
f 60/122/50 73/136/50 47/135/50
f 60/122/51 67/121/51 73/136/51
f 67/115/52 46/132/52 73/153/52
f 68/119/53 72/133/53 46/132/53
f 68/119/54 65/112/54 72/133/54
f 65/112/55 45/154/55 72/133/55
f 66/118/56 71/130/56 45/129/56
f 66/118/57 63/109/57 71/130/57
f 63/109/58 44/147/58 71/130/58
f 64/117/59 70/149/59 44/155/59
f 64/117/60 61/106/60 70/149/60
f 61/106/61 43/150/61 70/149/61
f 62/156/62 69/157/62 43/150/62
f 62/116/63 59/103/63 69/152/63
f 59/103/64 47/135/64 69/152/64
f 67/115/65 68/119/65 46/132/65
f 67/115/66 58/114/66 68/119/66
f 58/114/67 41/110/67 68/119/67
f 65/158/68 66/118/68 45/129/68
f 65/158/69 57/159/69 66/118/69
f 57/159/70 40/107/70 66/118/70
f 63/109/71 64/160/71 44/147/71
f 63/109/72 55/108/72 64/160/72
f 55/161/73 39/104/73 64/117/73
f 61/106/74 62/156/74 43/150/74
f 61/106/75 51/105/75 62/156/75
f 51/105/76 38/162/76 62/156/76
f 59/103/77 60/122/77 47/135/77
f 59/103/78 52/99/78 60/122/78
f 52/99/79 42/120/79 60/122/79
f 53/102/80 58/163/80 42/164/80
f 53/102/81 56/101/81 58/163/81
f 56/165/82 41/110/82 58/114/82
f 56/101/83 57/166/83 41/167/83
f 56/101/84 54/100/84 57/166/84
f 54/168/85 40/107/85 57/159/85
f 54/168/86 55/108/86 40/107/86
f 54/100/87 49/96/87 55/169/87
f 49/96/88 39/170/88 55/169/88
f 52/99/89 53/171/89 42/120/89
f 52/172/90 50/95/90 53/102/90
f 50/95/91 37/94/91 53/102/91
f 49/173/92 51/105/92 39/104/92
f 49/96/93 50/95/93 51/174/93
f 50/95/94 38/175/94 51/174/94
o Plane.001
v 5.000000 -5.000000 0.000000
v 5.000000 5.000000 0.000000
v -5.000000 -5.000000 0.000000
v -5.000000 5.000000 0.000000
v 5.000000 -5.000000 2.000000
v -5.000000 -5.000000 2.000000
v -0.424553 -1.216587 0.000000
v -1.013519 0.816488 0.000000
v 0.867517 1.380064 0.000000
v 1.416865 -1.233523 0.000000
v -0.190654 -0.908275 3.317379
v -0.629730 0.607390 3.317379
v 0.633161 0.985764 3.317379
v 1.033635 -0.919535 3.317379
v -0.424553 -1.216587 3.000000
v -1.013519 0.816488 3.000000
v 0.867517 1.380064 3.000000
v 1.416865 -1.233523 3.000000
v -2.668387 2.468796 0.500000
v -2.668387 2.468796 1.500000
v -3.668386 2.468796 0.500000
v -3.668386 2.468796 1.500000
v -2.668387 3.468796 0.500000
v -2.668387 3.468796 1.500000
v -3.668386 3.468796 0.500000
v -3.668386 3.468796 1.500000
v 0.337403 3.211229 0.057530
v 0.337403 3.211229 0.732337
v -0.337403 3.211229 0.057530
v -0.337403 3.211229 0.732337
v 0.337403 3.886036 0.057530
v 0.337403 3.886036 0.732337
v -0.337403 3.886036 0.057530
v -0.337403 3.886036 0.732337
v -5.000000 5.000000 2.000000
v -0.978674 5.000000 0.000000
v 0.631259 -1.729335 0.394333
v 0.794114 -1.505182 0.565568
v 0.894766 -1.814952 0.565568
v 0.631259 -2.006402 0.565569
v 0.367753 -1.814952 0.565568
v 0.468405 -1.505182 0.565568
v 0.894766 -1.643718 0.842639
v 0.794114 -1.953487 0.842639
v 0.468405 -1.953487 0.842639
v 0.367753 -1.643718 0.842639
v 0.631259 -1.452267 0.842638
v 0.631259 -1.729335 1.013874
v 0.786143 -1.779659 0.440596
v 0.726982 -1.597582 0.440596
v 0.881868 -1.647905 0.541245
v 0.631259 -1.465829 0.541246
v 0.535537 -1.597582 0.440596
v 0.631259 -1.892190 0.440596
v 0.786144 -1.942516 0.541246
v 0.476376 -1.779659 0.440596
v 0.476375 -1.942516 0.541246
v 0.380651 -1.647905 0.541245
v 0.726983 -1.434725 0.704103
v 0.535536 -1.434725 0.704103
v 0.941030 -1.729335 0.704103
v 0.881869 -1.547256 0.704103
v 0.726983 -2.023945 0.704103
v 0.881869 -1.911413 0.704103
v 0.380650 -1.911413 0.704103
v 0.535536 -2.023945 0.704103
v 0.380650 -1.547256 0.704103
v 0.321489 -1.729335 0.704103
v 0.786144 -1.516154 0.866961
v 0.881868 -1.810764 0.866962
v 0.631259 -1.992841 0.866961
v 0.380651 -1.810764 0.866962
v 0.476375 -1.516154 0.866961
v 0.786143 -1.679011 0.967611
v 0.631259 -1.566479 0.967611
v 0.726982 -1.861087 0.967611
v 0.535537 -1.861087 0.967611
v 0.476376 -1.679011 0.967611
vt 0.000000 0.713199
vt 0.713199 0.713199
vt 0.455026 0.418471
vt 0.268625 0.457650
vt 0.589810 0.713199
vt 0.579433 0.851666
vt 0.673454 0.850808
vt 0.673454 0.738267
vt 0.288918 0.713199
vt 0.142637 0.713199
vt 0.142637 0.927159
vt 0.288918 0.927159
vt 0.269833 0.326321
vt 0.414832 0.284316
vt 0.713199 0.286801
vt 0.713199 0.000000
vt 0.000000 0.000000
vt 0.288918 0.949932
vt 0.420249 0.949939
vt 0.420249 0.735984
vt 0.288918 0.735977
vt 0.555554 0.713435
vt 0.420249 0.713199
vt 0.420249 0.927155
vt 0.555554 0.927390
vt 0.900395 0.713036
vt 0.713199 0.713036
vt 0.713199 0.926996
vt 0.900395 0.926996
vt 0.695596 0.872748
vt 0.695596 0.721788
vt 0.555554 0.874026
vt 0.740957 0.949632
vt 0.877422 0.949632
vt 0.392895 0.713204
vt 0.305578 0.713199
vt 0.900396 0.784356
vt 0.971714 0.784356
vt 0.971714 0.713036
vt 0.900395 0.713036
vt 0.900395 0.927009
vt 0.900395 0.998329
vt 0.971678 0.998329
vt 0.971678 0.927009
vt 0.971683 0.855676
vt 0.900395 0.855690
vt 0.900395 0.927009
vt 0.900395 0.784356
vt 0.971699 0.855676
vt 0.971699 0.784356
vt 0.626874 0.945346
vt 0.626874 0.874026
vt 0.555554 0.874026
vt 0.555554 0.945346
vt 0.698194 0.945346
vt 0.698194 0.874026
vt 0.626874 0.874026
vt 0.626874 0.945346
vt 0.238891 0.975286
vt 0.287018 0.975286
vt 0.287017 0.927159
vt 0.238891 0.927159
vt 0.555554 0.945346
vt 0.555554 0.993474
vt 0.603656 0.993474
vt 0.603656 0.945346
vt 0.516470 0.975516
vt 0.516470 0.927390
vt 0.468365 0.927399
vt 0.468365 0.975525
vt 0.420249 0.927390
vt 0.420249 0.975517
vt 0.468365 0.975517
vt 0.468365 0.927390
vt 0.190764 0.927159
vt 0.142637 0.927159
vt 0.142637 0.975286
vt 0.190764 0.975286
vt 0.238891 0.927159
vt 0.190764 0.927159
vt 0.190764 0.975286
vt 0.238891 0.975286
vt 0.855839 0.000000
vt 0.855839 0.712876
vt 0.998476 0.712904
vt 0.998476 0.000028
vt 0.855839 0.713036
vt 0.855839 0.000000
vt 0.713199 0.000000
vt 0.713199 0.713036
vt 0.142637 1.000000
vt 0.142637 0.713199
vt 0.000000 0.999999
vt 0.535263 0.946183
vt 0.525867 0.953010
vt 0.538853 0.957229
vt 0.774489 0.966832
vt 0.774766 0.956587
vt 0.765448 0.959482
vt 0.546878 0.946183
vt 0.538853 0.935137
vt 0.525867 0.939356
vt 0.765448 0.972998
vt 0.646877 0.954193
vt 0.640356 0.964333
vt 0.653370 0.963778
vt 0.723592 0.977877
vt 0.732250 0.984939
vt 0.734479 0.972822
vt 0.691078 0.954569
vt 0.688787 0.945346
vt 0.679225 0.952376
vt 0.700129 0.974455
vt 0.697577 0.964661
vt 0.689978 0.976003
vt 0.774766 0.978457
vt 0.658711 0.952043
vt 0.722705 0.965908
vt 0.684658 0.964314
vt 0.754512 0.954998
vt 0.744024 0.960247
vt 0.753706 0.966042
vt 0.628556 0.982933
vt 0.637653 0.975186
vt 0.626039 0.975186
vt 0.606463 0.975754
vt 0.616642 0.982013
vt 0.613053 0.970967
vt 0.723592 0.954933
vt 0.734479 0.959336
vt 0.732250 0.949632
vt 0.678149 0.973864
vt 0.671625 0.963718
vt 0.668891 0.975039
vt 0.754511 0.977993
vt 0.744024 0.973763
vt 0.749783 0.985490
vt 0.634064 0.964140
vt 0.626039 0.953093
vt 0.622449 0.964140
vt 0.637653 0.953093
vt 0.628556 0.945346
vt 0.613053 0.957313
vt 0.616642 0.946266
vt 0.606463 0.952525
vt 0.603656 0.964140
vt 0.743623 0.966696
vt 0.744024 0.956546
vt 0.666309 0.963387
vt 0.659805 0.973491
vt 0.668891 0.975044
vt 0.763024 0.985018
vt 0.680233 0.982631
vt 0.668906 0.953555
vt 0.668891 0.953528
vt 0.647955 0.975677
vt 0.657547 0.982639
vt 0.713199 0.960265
vt 0.713199 0.973751
vt 0.744024 0.978367
vt 0.648997 0.945346
vt 0.637664 0.974436
vt 0.529456 0.928310
vt 0.519277 0.934568
vt 0.700129 0.952939
vt 0.550468 0.935137
vt 0.541370 0.927390
vt 0.719099 0.985513
vt 0.550468 0.957229
vt 0.541370 0.964976
vt 0.763024 0.949632
vt 0.516470 0.946183
vt 0.637654 0.952942
vt 0.529456 0.964056
vt 0.519277 0.957798
vn 0.0000 0.0000 1.0000
vn -0.9605 -0.2783 0.0000
vn -0.0092 -1.0000 0.0000
vn -0.2870 0.9579 0.0000
vn 0.9786 0.2057 0.0000
vn -0.6866 -0.1989 0.6993
vn -0.2052 0.6848 0.6993
vn 0.6996 0.1470 0.6993
vn -0.0066 -0.7148 0.6993
vn 0.0000 -1.0000 0.0000
vn -1.0000 0.0000 0.0000
vn 0.0000 1.0000 0.0000
vn 1.0000 0.0000 0.0000
vn 0.0000 0.0000 -1.0000
vn 0.3151 0.1024 -0.9435
vn 0.2680 0.7002 -0.6617
vn 0.1947 -0.2680 -0.9435
vn -0.1947 -0.2680 -0.9435
vn -0.3151 0.1024 -0.9435
vn 0.2680 0.9050 -0.3304
vn 0.9435 0.0247 -0.3304
vn 0.3151 -0.8897 -0.3304
vn -0.7488 -0.5746 -0.3304
vn -0.7779 0.5346 -0.3304
vn 0.5831 0.8026 -0.1256
vn 0.9435 -0.3066 -0.1256
vn 0.0000 -0.9921 -0.1256
vn -0.9435 -0.3066 -0.1256
vn -0.5831 0.8026 -0.1256
vn 0.6284 0.4089 0.6617
vn 0.5831 -0.4713 0.6617
vn -0.2680 -0.7002 0.6617
vn -0.7488 0.0385 0.6617
vn -0.1947 0.7240 0.6617
vn -0.1947 0.2680 0.9435
vn -0.3568 0.4911 0.7947
vn -0.6284 0.4089 0.6617
vn -0.3151 -0.1024 0.9435
vn -0.5773 -0.1876 0.7947
vn -0.5831 -0.4713 0.6617
vn 0.0000 -0.3313 0.9435
vn 0.0000 -0.6071 0.7947
vn 0.2680 -0.7002 0.6617
vn 0.3151 -0.1024 0.9435
vn 0.5773 -0.1876 0.7947
vn 0.7488 0.0385 0.6617
vn 0.1947 0.2680 0.9435
vn 0.3568 0.4911 0.7947
vn 0.1947 0.7240 0.6617
vn -0.3151 0.8897 0.3304
vn -0.5773 0.7947 0.1876
vn -0.7488 0.5746 0.3304
vn -0.9435 -0.0247 0.3304
vn -0.9342 -0.3035 0.1876
vn -0.7779 -0.5346 0.3304
vn -0.2680 -0.9050 0.3304
vn 0.0000 -0.9822 0.1876
vn 0.2680 -0.9050 0.3304
vn 0.7779 -0.5346 0.3304
vn 0.9342 -0.3035 0.1876
vn 0.9435 -0.0247 0.3304
vn 0.7488 0.5746 0.3304
vn 0.5773 0.7947 0.1876
vn 0.3151 0.8897 0.3304
vn -0.9435 0.3066 0.1256
vn -0.9342 0.3035 -0.1876
vn -0.9435 0.0247 -0.3304
vn -0.5831 -0.8026 0.1256
vn -0.5773 -0.7947 -0.1876
vn -0.3151 -0.8897 -0.3304
vn 0.5831 -0.8026 0.1256
vn 0.5773 -0.7947 -0.1876
vn 0.7488 -0.5746 -0.3304
vn 0.9435 0.3066 0.1256
vn 0.9342 0.3035 -0.1876
vn 0.7779 0.5346 -0.3304
vn 0.0000 0.9921 0.1256
vn 0.0000 0.9822 -0.1876
vn -0.2680 0.9050 -0.3304
vn -0.5831 0.4713 -0.6617
vn -0.5773 0.1876 -0.7947
vn -0.7488 -0.0385 -0.6617
vn -0.6284 -0.4089 -0.6617
vn -0.3568 -0.4911 -0.7947
vn -0.1947 -0.7240 -0.6617
vn 0.1947 -0.7240 -0.6617
vn 0.3568 -0.4911 -0.7947
vn 0.6284 -0.4089 -0.6617
vn -0.2680 0.7002 -0.6617
vn 0.0000 0.6071 -0.7947
vn 0.0000 0.3313 -0.9435
vn 0.7488 -0.0385 -0.6617
vn 0.5773 0.1876 -0.7947
vn 0.5831 0.4713 -0.6617
usemtl Material.010
s off
f 79/176/95 80/177/95 87/178/95 88/179/95
f 92/180/95 91/181/95 90/182/95 89/183/95
f 86/184/96 85/185/96 93/186/96 94/187/96
f 85/188/95 86/189/95 87/178/95 80/177/95 114/190/95 82/191/95 81/192/95 79/176/95 88/179/95
f 85/193/97 88/194/97 96/195/97 93/196/97
f 87/197/98 86/198/98 94/199/98 95/200/98
f 88/201/99 87/202/99 95/203/99 96/204/99
f 89/183/100 90/182/100 94/205/100 93/206/100
f 90/182/101 91/181/101 95/207/101 94/205/101
f 91/208/102 92/209/102 96/204/102 95/203/102
f 92/210/103 89/211/103 93/196/103 96/195/103
usemtl Material.009
f 97/212/104 98/213/104 100/214/104 99/215/104
f 99/216/105 100/217/105 104/218/105 103/219/105
f 103/219/106 104/220/106 102/221/106 101/222/106
f 101/223/107 102/221/107 98/224/107 97/225/107
f 99/226/108 103/227/108 101/228/108 97/229/108
f 104/230/95 100/231/95 98/232/95 102/233/95
usemtl Material.008
f 105/234/104 106/235/104 108/236/104 107/237/104
f 107/238/105 108/239/105 112/240/105 111/241/105
f 111/242/106 112/243/106 110/244/106 109/245/106
f 109/246/107 110/247/107 106/248/107 105/249/107
f 107/250/108 111/251/108 109/252/108 105/253/108
f 112/254/95 108/255/95 106/256/95 110/257/95
usemtl Material.007
f 79/258/106 81/259/106 84/260/106 83/261/106
f 113/262/107 84/263/107 81/264/107 82/265/107
f 82/266/104 114/267/104 113/268/104
usemtl Material.006
f 115/269/109 128/270/109 127/271/109
f 116/272/110 128/273/110 130/274/110
f 115/269/111 127/271/111 132/275/111
f 115/269/112 132/275/112 134/276/112
f 115/269/113 134/276/113 131/277/113
f 116/272/114 130/274/114 137/278/114
f 117/279/115 129/280/115 139/281/115
f 118/282/116 133/283/116 141/284/116
f 119/285/117 135/286/117 143/287/117
f 120/288/118 136/289/118 145/290/118
f 116/272/119 137/278/119 140/291/119
f 117/279/120 139/281/120 142/292/120
f 118/282/121 141/284/121 144/293/121
f 119/285/122 143/287/122 146/294/122
f 120/295/123 145/296/123 138/297/123
f 121/298/124 147/299/124 152/300/124
f 122/301/125 148/302/125 154/303/125
f 123/304/126 149/305/126 155/306/126
f 124/307/127 150/308/127 156/309/127
f 125/310/128 151/311/128 153/312/128
f 153/313/129 156/314/129 126/315/129
f 153/313/130 151/316/130 156/314/130
f 151/316/131 124/317/131 156/314/131
f 156/314/132 155/318/132 126/315/132
f 156/314/133 150/319/133 155/318/133
f 150/319/134 123/320/134 155/318/134
f 155/318/135 154/303/135 126/315/135
f 155/318/136 149/321/136 154/303/136
f 149/305/137 122/322/137 154/323/137
f 154/303/138 152/300/138 126/315/138
f 154/303/139 148/302/139 152/300/139
f 148/324/140 121/325/140 152/326/140
f 152/300/141 153/313/141 126/315/141
f 152/300/142 147/299/142 153/313/142
f 147/327/143 125/310/143 153/312/143
f 138/297/144 151/311/144 125/310/144
f 138/297/145 145/296/145 151/311/145
f 145/290/146 124/307/146 151/328/146
f 146/294/147 150/308/147 124/307/147
f 146/294/148 143/287/148 150/308/148
f 143/287/149 123/329/149 150/308/149
f 144/293/150 149/305/150 123/304/150
f 144/293/151 141/284/151 149/305/151
f 141/284/152 122/322/152 149/305/152
f 142/292/153 148/324/153 122/330/153
f 142/292/154 139/281/154 148/324/154
f 139/281/155 121/325/155 148/324/155
f 140/331/156 147/332/156 121/325/156
f 140/291/157 137/278/157 147/327/157
f 137/278/158 125/310/158 147/327/158
f 145/290/159 146/294/159 124/307/159
f 145/290/160 136/289/160 146/294/160
f 136/289/161 119/285/161 146/294/161
f 143/333/162 144/293/162 123/304/162
f 143/333/163 135/334/163 144/293/163
f 135/334/164 118/282/164 144/293/164
f 141/284/165 142/335/165 122/322/165
f 141/284/166 133/283/166 142/335/166
f 133/336/167 117/279/167 142/292/167
f 139/281/168 140/331/168 121/325/168
f 139/281/169 129/280/169 140/331/169
f 129/280/170 116/337/170 140/331/170
f 137/278/171 138/297/171 125/310/171
f 137/278/172 130/274/172 138/297/172
f 130/274/173 120/295/173 138/297/173
f 131/277/174 136/338/174 120/339/174
f 131/277/175 134/276/175 136/338/175
f 134/340/176 119/285/176 136/289/176
f 134/276/177 135/341/177 119/342/177
f 134/276/178 132/275/178 135/341/178
f 132/343/179 118/282/179 135/334/179
f 132/343/180 133/283/180 118/282/180
f 132/275/181 127/271/181 133/344/181
f 127/271/182 117/345/182 133/344/182
f 130/274/183 131/346/183 120/295/183
f 130/347/184 128/270/184 131/277/184
f 128/270/185 115/269/185 131/277/185
f 127/348/186 129/280/186 117/279/186
f 127/271/187 128/270/187 129/349/187
f 128/270/188 116/350/188 129/349/188
