# Blender v2.81 (sub 16) OBJ File: ''
# www.blender.org
mtllib player.mtl
o Cube
v 1.000000 1.000000 -1.000000
v 1.000000 -1.000000 -1.000000
v 1.000000 1.000000 1.000000
v 1.000000 -1.000000 1.000000
v -1.000000 1.000000 -1.000000
v -1.000000 -1.000000 -1.000000
v -1.000000 1.000000 1.000000
v -1.000000 -1.000000 1.000000
v 1.000000 2.839519 1.000000
v -1.000000 2.839519 1.000000
v 1.000000 2.839519 -1.000000
v -1.000000 2.839519 -1.000000
v -1.000000 1.000000 -2.435109
v 1.000000 1.000000 -2.435109
v -1.000000 2.839519 -2.435109
v 1.000000 2.839519 -2.435109
v 1.000000 1.000000 2.662296
v -1.000000 1.000000 2.662296
v 1.000000 2.839519 2.662296
v -1.000000 2.839519 2.662296
v 0.448713 3.079899 0.448713
v -0.448713 3.079899 0.448713
v 0.448713 3.079899 -0.448713
v -0.448713 3.079899 -0.448713
v 0.448713 3.607959 0.448713
v -0.448713 3.607959 0.448713
v 0.448713 3.607959 -0.448713
v -0.448713 3.607959 -0.448713
v 0.626467 3.945572 0.626467
v -0.626467 3.945572 0.626467
v 0.626467 3.945572 -0.626467
v -0.626467 3.945572 -0.626467
v 0.626467 4.804618 0.626467
v -0.626467 4.804618 0.626467
v 0.626467 4.804618 -0.626467
v -0.626467 4.804618 -0.626467
v 0.417754 5.136568 0.417754
v -0.417754 5.136568 0.417754
v 0.417754 5.136568 -0.417754
v -0.417754 5.136568 -0.417754
v -1.000000 -2.853711 -1.000000
v -1.000000 -2.853711 1.000000
v 1.000000 -2.853711 -1.000000
v 1.000000 -2.853711 1.000000
v 1.000000 0.114236 1.000000
v -1.000000 0.114236 1.000000
v 1.000000 0.114236 2.662296
v -1.000000 0.114236 2.662296
v -1.000000 0.096519 -1.000000
v 1.000000 0.096519 -1.000000
v -1.000000 0.096519 -2.435109
v 1.000000 0.096519 -2.435109
vt 0.625000 0.250000
vt 0.625000 0.250000
vt 0.625000 0.250000
vt 0.625000 0.250000
vt 0.375000 0.750000
vt 0.625000 0.750000
vt 0.625000 1.000000
vt 0.375000 1.000000
vt 0.375000 0.000000
vt 0.625000 0.000000
vt 0.375000 0.250000
vt 0.375000 0.500000
vt 0.375000 0.500000
vt 0.375000 0.250000
vt 0.625000 0.500000
vt 0.625000 0.000000
vt 0.625000 0.000000
vt 0.625000 0.250000
vt 0.625000 0.750000
vt 0.875000 0.750000
vt 0.875000 0.750000
vt 0.625000 0.750000
vt 0.625000 0.500000
vt 0.625000 0.500000
vt 0.625000 0.500000
vt 0.625000 0.250000
vt 0.625000 0.250000
vt 0.875000 0.500000
vt 0.875000 0.500000
vt 0.625000 1.000000
vt 0.625000 0.750000
vt 0.625000 1.000000
vt 0.625000 0.000000
vt 0.625000 0.000000
vt 0.625000 0.000000
vt 0.625000 0.000000
vt 0.625000 0.000000
vt 0.625000 0.250000
vt 0.625000 0.750000
vt 0.875000 0.750000
vt 0.875000 0.500000
vt 0.625000 0.500000
vt 0.625000 0.500000
vt 0.875000 0.500000
vt 0.875000 0.500000
vt 0.625000 0.500000
vt 0.625000 0.750000
vt 0.875000 0.750000
vt 0.625000 0.250000
vt 0.625000 0.000000
vt 0.625000 0.000000
vt 0.625000 0.250000
vt 0.625000 0.750000
vt 0.875000 0.750000
vt 0.875000 0.750000
vt 0.625000 0.750000
vt 0.625000 0.750000
vt 0.875000 0.750000
vt 0.875000 0.500000
vt 0.625000 0.500000
vt 0.625000 0.500000
vt 0.875000 0.500000
vt 0.625000 0.000000
vt 0.625000 0.250000
vt 0.125000 0.500000
vt 0.375000 0.750000
vt 0.125000 0.750000
vt 0.375000 1.000000
vt 0.375000 0.000000
vt 0.625000 1.000000
vt 0.625000 0.750000
vt 0.625000 0.750000
vt 0.625000 1.000000
vt 0.625000 0.500000
vt 0.625000 0.500000
vn -1.0000 0.0000 0.0000
vn 0.0000 0.0000 1.0000
vn 0.0000 0.0000 -1.0000
vn 1.0000 0.0000 0.0000
vn -0.3997 0.9166 0.0000
vn 0.0000 1.0000 0.0000
vn 0.0000 0.9166 0.3997
vn 0.0000 0.9166 -0.3997
vn 0.3997 0.9166 0.0000
vn 0.0000 -0.4659 -0.8849
vn 0.8849 -0.4659 0.0000
vn -0.8849 -0.4659 0.0000
vn 0.0000 -0.4659 0.8849
vn 0.0000 0.5323 0.8466
vn 0.0000 0.5323 -0.8466
vn 0.8466 0.5323 0.0000
vn -0.8466 0.5323 0.0000
vn 0.0000 -1.0000 0.0000
usemtl Material
s off
f 5/1/1 12/2/1 15/3/1 13/4/1
f 4/5/2 3/6/2 7/7/2 8/8/2
f 8/9/1 7/10/1 5/1/1 6/11/1
f 6/11/3 2/12/3 43/13/3 41/14/3
f 2/12/4 1/15/4 3/6/4 4/5/4
f 6/11/3 5/1/3 1/15/3 2/12/3
f 12/2/5 10/16/5 22/17/5 24/18/5
f 9/19/6 10/20/6 20/21/6 19/22/6
f 5/1/1 7/10/1 10/16/1 12/2/1
f 3/6/4 1/15/4 11/23/4 9/19/4
f 14/24/3 13/4/3 15/3/3 16/25/3
f 5/1/1 13/4/1 51/26/1 49/27/1
f 11/23/4 1/15/4 14/24/4 16/25/4
f 12/28/6 11/23/6 16/25/6 15/29/6
f 18/30/2 17/31/2 19/22/2 20/32/2
f 10/16/1 7/10/1 18/33/1 20/34/1
f 18/33/1 7/10/1 46/35/1 48/36/1
f 3/6/4 9/19/4 19/22/4 17/31/4
f 24/18/1 22/17/1 26/37/1 28/38/1
f 10/20/7 9/19/7 21/39/7 22/40/7
f 11/23/8 12/28/8 24/41/8 23/42/8
f 9/19/9 11/23/9 23/42/9 21/39/9
f 27/43/10 28/44/10 32/45/10 31/46/10
f 22/40/2 21/39/2 25/47/2 26/48/2
f 23/42/3 24/41/3 28/44/3 27/43/3
f 21/39/4 23/42/4 27/43/4 25/47/4
f 32/49/1 30/50/1 34/51/1 36/52/1
f 25/47/11 27/43/11 31/46/11 29/53/11
f 28/38/12 26/37/12 30/50/12 32/49/12
f 26/48/13 25/47/13 29/53/13 30/54/13
f 34/55/14 33/56/14 37/57/14 38/58/14
f 30/54/2 29/53/2 33/56/2 34/55/2
f 31/46/3 32/45/3 36/59/3 35/60/3
f 29/53/4 31/46/4 35/60/4 33/56/4
f 39/61/6 40/62/6 38/58/6 37/57/6
f 35/60/15 36/59/15 40/62/15 39/61/15
f 33/56/16 35/60/16 39/61/16 37/57/16
f 36/52/17 34/51/17 38/63/17 40/64/17
f 41/65/18 43/13/18 44/66/18 42/67/18
f 4/5/2 8/8/2 42/68/2 44/66/2
f 8/9/1 6/11/1 41/14/1 42/69/1
f 2/12/4 4/5/4 44/66/4 43/13/4
f 46/70/18 45/71/18 47/72/18 48/73/18
f 7/7/3 3/6/3 45/71/3 46/70/3
f 17/31/2 18/30/2 48/73/2 47/72/2
f 3/6/4 17/31/4 47/72/4 45/71/4
f 50/74/18 49/27/18 51/26/18 52/75/18
f 1/15/2 5/1/2 49/27/2 50/74/2
f 14/24/4 1/15/4 50/74/4 52/75/4
f 13/4/3 14/24/3 52/75/3 51/26/3
