# Blender v2.81 (sub 16) OBJ File: ''
# www.blender.org
mtllib xyz_cube.mtl
o Cube
v -1.000000 -0.843697 1.000000
v -0.843697 -1.000000 0.843697
v -0.843697 -1.000000 -0.843697
v -1.000000 -0.843697 -1.000000
v 1.000000 -0.843697 1.000000
v 0.843697 -1.000000 0.843697
v 0.843697 -1.000000 -0.843697
v 1.000000 -0.843697 -1.000000
v -1.000000 0.823183 1.000000
v -0.814111 1.000000 0.823183
v -0.814111 1.000000 -0.828351
v -1.000000 0.828351 -1.000000
v 0.828307 1.000000 0.823183
v 1.000000 0.828307 0.994876
v 1.000000 0.828351 -1.000000
v 0.828307 1.000000 -0.828351
v -1.000000 0.823183 1.000000
v 1.000000 0.823183 1.000000
v -1.000000 0.828351 -1.000000
v 1.000000 0.828351 -1.000000
vt 0.647996 0.500000
vt 0.352935 0.500000
vt 0.352935 0.000000
vt 0.647996 0.000000
vt 0.504705 0.960924
vt 0.504705 0.539076
vt 0.543712 0.500000
vt 0.543712 1.000000
vt 0.705869 0.039076
vt 0.705869 0.460924
vt 0.678287 0.500000
vt 0.678287 0.000000
vt 0.705869 0.460924
vt 0.705869 0.039076
vt 0.733452 0.000000
vt 0.733452 0.500000
vt 0.960993 0.960924
vt 0.960993 0.539076
vt 1.000000 0.500000
vt 1.000000 1.000000
vt 0.678287 0.500000
vt 0.647996 0.453528
vt 0.647996 0.042923
vt 0.678287 0.000000
vt 0.678287 0.000000
vt 0.678287 0.500000
vt 0.352935 0.500000
vt 0.000000 0.500000
vt 0.031202 0.453528
vt 0.322644 0.453528
vt 0.322644 0.042923
vt 0.031202 0.042923
vt 0.000904 0.000000
vt 0.352934 0.000000
vt 0.000000 0.500000
vt 0.000000 0.000000
vt 0.294150 0.539076
vt 0.294150 0.960924
vt 0.000000 0.500000
vt 0.294150 0.500000
vt 0.294150 1.000000
vt 0.000000 1.000000
vt 0.752353 1.000000
vt 0.544357 1.000000
vt 0.544357 1.000000
vt 0.543712 0.500000
vt 0.543712 0.500000
vt 0.752352 0.500000
vt 0.960993 1.000000
vt 0.752353 1.000000
vt 0.752353 1.000000
vt 0.752358 0.501281
vt 0.752997 0.500000
vt 0.960993 0.500000
vn 0.0000 0.0000 -1.0000
vn 0.7071 -0.7071 0.0000
vn 0.0000 -0.7071 0.7071
vn 0.0000 -0.7071 -0.7071
vn -0.7071 -0.7071 0.0000
vn 0.0000 0.7071 -0.7071
vn -0.6839 0.7296 0.0010
vn 0.7071 0.7072 0.0000
vn 0.0000 0.7071 0.7071
vn 0.0000 -1.0000 0.0000
vn 0.0000 0.0000 1.0000
vn -1.0000 0.0000 0.0000
vn 0.0000 1.0000 0.0000
vn 1.0000 0.0000 0.0000
usemtl Material
s off
f 4/1/1 19/2/1 20/3/1 8/4/1
f 6/5/2 7/6/2 8/7/2 5/8/2
f 2/9/3 6/10/3 5/11/3 1/12/3
f 7/13/4 3/14/4 4/15/4 8/16/4
f 3/17/5 2/18/5 1/19/5 4/20/5
f 12/21/6 11/22/6 16/23/6 15/24/6 20/25/6 19/26/6
f 12/27/7 9/28/7 10/29/7 11/30/7
f 16/31/8 13/32/8 14/33/8 15/34/8
f 14/33/9 13/32/9 10/29/9 9/28/9 17/35/9 18/36/9
f 3/37/10 7/6/10 6/5/10 2/38/10
f 5/39/11 18/40/11 17/41/11 1/42/11
f 1/43/12 17/44/12 9/45/12 12/46/12 19/47/12 4/48/12
f 16/31/13 11/30/13 10/29/13 13/32/13
f 8/49/14 20/50/14 15/51/14 14/52/14 18/53/14 5/54/14
