# Blender v2.90.0 OBJ File: ''
# www.blender.org
mtllib xyz_cube.mtl
o Cube
v -1.000000 -0.843697 -1.000000
v -1.000000 0.828351 -1.000000
v 1.000000 0.828351 -1.000000
v 1.000000 -0.843697 -1.000000
v 0.843697 -1.000000 0.843697
v 0.843697 -1.000000 -0.843697
v 1.000000 -0.843697 1.000000
v -0.843697 -1.000000 0.843697
v -1.000000 -0.843697 1.000000
v -0.843697 -1.000000 -0.843697
v -1.000000 0.828351 -1.000000
v -0.814111 1.000000 -0.828351
v 0.828307 1.000000 -0.828351
v 1.000000 0.828351 -1.000000
v -1.000000 0.823183 1.000000
v -0.814111 1.000000 0.823183
v 0.828307 1.000000 0.823183
v 1.000000 0.828307 0.994876
v -1.000000 0.823183 1.000000
v 1.000000 0.823183 1.000000
v 1.000000 -0.843697 -1.000000
vt 0.711353 0.870222
vt 0.401907 0.870222
vt 0.401907 0.435111
vt 0.711353 0.435111
vt 0.028927 0.259580
vt 0.341213 0.259580
vt 0.370140 0.307670
vt 0.000000 0.307670
vt 0.337416 0.598894
vt 0.337416 0.965995
vt 0.308489 1.000000
vt 0.308489 0.564889
vt 0.740280 0.469116
vt 0.740280 0.836217
vt 1.000000 0.034005
vt 1.000000 0.401106
vt 0.959091 0.435111
vt 0.959091 0.000000
vt 0.401907 0.870222
vt 0.370140 0.829781
vt 0.370140 0.472464
vt 0.401907 0.435111
vt 0.740280 0.435111
vt 0.370140 0.435111
vt 0.402863 0.394670
vt 0.708513 0.394670
vt 0.708513 0.037353
vt 0.402863 0.037353
vt 0.371088 0.000000
vt 0.740280 0.000000
vt 0.370140 0.435111
vt 0.370140 0.000000
vt 0.341213 0.000000
vt 0.028927 0.000000
vt 0.000000 1.000000
vt 0.000000 0.564889
vt 0.740956 0.435111
vt 0.740956 0.435111
vt 0.740280 0.000000
vt 0.740280 0.000000
vt 0.370140 0.564889
vt 0.370140 0.564889
vt 0.000948 0.564882
vt 0.000000 0.564094
vn 0.0000 0.0000 -1.0000
vn 0.7071 -0.7071 -0.0000
vn 0.0000 -0.7071 0.7071
vn 0.0000 -0.7071 -0.7071
vn -0.7071 -0.7071 -0.0000
vn 0.0000 0.7071 -0.7071
vn -0.6839 0.7296 0.0010
vn 0.7071 0.7072 0.0000
vn -0.0000 0.7071 0.7071
vn 0.0000 -1.0000 -0.0000
vn 0.0000 -0.0000 1.0000
vn -1.0000 -0.0000 0.0000
vn 0.0000 1.0000 0.0000
vn 1.0000 0.0000 0.0000
usemtl Material.002
s 1
f 1/1/1 2/2/1 3/3/1 4/4/1
f 5/5/2 6/6/2 4/7/2 7/8/2
f 8/9/3 5/10/3 7/11/3 9/12/3
f 6/13/4 10/14/4 1/1/4 4/4/4
f 10/15/5 8/16/5 9/17/5 1/18/5
f 11/19/6 12/20/6 13/21/6 14/22/6 3/3/6 2/2/6
f 11/23/7 15/24/7 16/25/7 12/26/7
f 13/27/8 17/28/8 18/29/8 14/30/8
f 18/29/9 17/28/9 16/25/9 15/24/9 19/31/9 20/32/9
f 10/33/10 6/6/10 5/5/10 8/34/10
f 7/11/11 20/35/11 19/36/11 9/12/11
f 9/17/12 19/37/12 15/38/12 11/39/12 2/40/12 1/18/12
f 13/27/13 12/26/13 16/25/13 17/28/13
f 4/7/14 3/41/14 14/42/14 18/43/14 20/44/14 7/8/14
