# Blender v2.81 (sub 16) OBJ File: ''
# www.blender.org
mtllib huge_map.mtl
o Plane
v -200.000000 0.000000 200.000000
v 200.000000 0.000000 200.000000
v -200.000000 0.000000 -200.000000
v 200.000000 0.000000 -200.000000
v -200.000000 100.686501 200.000000
v -200.000000 100.686501 -200.000000
v 200.000000 100.686501 -200.000000
v 444.047180 0.000000 200.000000
v 444.047180 0.000000 -200.000000
v 285.461609 0.000000 -200.000000
v 285.461609 0.000000 200.000000
v 309.407349 0.000000 200.000000
v 309.407349 0.000000 -200.000000
v -200.000000 0.000000 -41.965168
v 200.000000 0.000000 -41.965168
v -200.000000 100.686501 -41.965168
v 444.047180 0.000000 -41.965168
v 285.461609 0.000000 -41.965168
v 309.407349 0.000000 -41.965168
v -200.000000 0.000000 53.211723
v -200.000000 100.686501 53.211723
v 200.000000 0.000000 53.211723
v 444.047180 0.000000 53.211723
v 285.461609 0.000000 53.211723
v 309.407349 0.000000 53.211723
v 285.461609 33.112282 53.211723
v 285.461609 33.112282 -41.965168
v 309.407349 33.112282 53.211723
v 309.407349 33.112282 -41.965168
vt 0.402355 1.000000
vt 0.402354 0.378927
vt 0.665144 0.378927
vt 0.665145 1.000000
vt 0.665145 0.621073
vt 0.665145 0.000000
vt 0.832572 0.000000
vt 0.832572 0.621073
vt 1.000000 0.375695
vt 1.000000 0.621073
vt 0.832572 0.375695
vt 0.244089 0.209053
vt 0.000000 0.209053
vt 0.000000 0.000000
vt 0.244088 0.000000
vt 0.244089 0.378927
vt 0.000000 0.378928
vt 0.000000 0.246233
vt 0.244089 0.246233
vt 0.665144 0.246233
vt 0.402354 0.246233
vt 0.402354 0.209053
vt 0.665144 0.209053
vt 0.402354 0.000000
vt 0.665144 0.000000
vt 1.000000 0.227915
vt 0.832572 0.227915
vt 0.244089 1.000000
vt 0.000000 1.000000
vt 1.000000 0.000000
vt 0.832572 0.000000
vt 0.720206 0.621073
vt 0.720206 0.768852
vt 0.665145 0.768852
vt 0.665145 0.621073
vt 0.815085 0.621073
vt 0.815085 0.768852
vt 0.775267 0.768852
vt 0.775267 0.621073
vt 0.854904 0.672485
vt 0.815085 0.672485
vt 0.815085 0.621073
vt 0.854904 0.621073
vt 0.854904 0.723898
vt 0.815085 0.723898
vt 0.815085 0.672485
vt 0.854904 0.672485
vt 0.775267 0.621073
vt 0.775267 0.768852
vt 0.720206 0.768852
vt 0.720206 0.621073
vn 0.0000 1.0000 0.0000
vn 0.0000 0.0000 1.0000
vn 1.0000 0.0000 0.0000
vn 0.0000 0.0000 -1.0000
vn -1.0000 0.0000 0.0000
usemtl Material.001
s off
f 14/1/1 15/2/1 4/3/1 3/4/1
f 3/5/2 4/6/2 7/7/2 6/8/2
f 14/9/3 3/10/3 6/8/3 16/11/3
f 25/12/1 12/13/1 8/14/1 23/15/1
f 22/16/1 2/17/1 11/18/1 24/19/1
f 24/19/1 11/18/1 12/13/1 25/12/1
f 10/20/1 18/21/1 19/22/1 13/23/1
f 4/3/1 15/2/1 18/21/1 10/20/1
f 13/23/1 19/22/1 17/24/1 9/25/1
f 20/26/3 14/9/3 16/11/3 21/27/3
f 20/28/1 22/16/1 15/2/1 14/1/1
f 1/29/1 2/17/1 22/16/1 20/28/1
f 1/30/3 20/26/3 21/27/3 5/31/3
f 25/32/3 19/33/3 29/34/3 28/35/3
f 15/2/1 22/16/1 24/19/1 18/21/1
f 19/22/1 25/12/1 23/15/1 17/24/1
f 27/36/1 26/37/1 28/38/1 29/39/1
f 24/40/2 25/41/2 28/42/2 26/43/2
f 19/44/4 18/45/4 27/46/4 29/47/4
f 18/48/5 24/49/5 26/50/5 27/51/5
